<svg xmlns="http://www.w3.org/2000/svg" xmlns:xlink="http://www.w3.org/1999/xlink" width="64" zoomAndPan="magnify" viewBox="0 0 48 48" height="64" preserveAspectRatio="xMidYMid meet" version="1.0"><defs><g/><clipPath id="76093421cb"><path d="M 0.488281 0 L 47.507812 0 L 47.507812 47.019531 L 0.488281 47.019531 Z M 0.488281 0 " clip-rule="nonzero"/></clipPath><clipPath id="d52cf5a9a8"><path d="M 24 0 C 11.015625 0 0.488281 10.527344 0.488281 23.511719 C 0.488281 36.496094 11.015625 47.019531 24 47.019531 C 36.984375 47.019531 47.511719 36.496094 47.511719 23.511719 C 47.511719 10.527344 36.984375 0 24 0 " clip-rule="nonzero"/></clipPath><clipPath id="88be37feb9"><path d="M 19 23 L 33 23 L 33 37 L 19 37 Z M 19 23 " clip-rule="nonzero"/></clipPath><clipPath id="3ae003e5f3"><path d="M 22.691406 20.277344 L 35.273438 26.589844 L 28.964844 39.167969 L 16.382812 32.859375 Z M 22.691406 20.277344 " clip-rule="nonzero"/></clipPath><clipPath id="86d29761ab"><path d="M 28.984375 23.433594 L 32.117188 32.878906 L 22.671875 36.015625 L 19.535156 26.566406 L 28.984375 23.433594 " clip-rule="nonzero"/></clipPath><clipPath id="eb24a3b918"><path d="M 16 22 L 27 22 L 27 34 L 16 34 Z M 16 22 " clip-rule="nonzero"/></clipPath><clipPath id="722b4c07a7"><path d="M 24.265625 20.242188 L 29.683594 31.054688 L 18.871094 36.472656 L 13.453125 25.660156 Z M 24.265625 20.242188 " clip-rule="nonzero"/></clipPath><clipPath id="0fc952db70"><path d="M 26.976562 25.648438 L 24.277344 33.765625 L 16.164062 31.066406 L 18.859375 22.953125 L 26.976562 25.648438 " clip-rule="nonzero"/></clipPath><clipPath id="61d1a4a671"><path d="M 18.96875 21.367188 L 29.03125 21.367188 L 29.03125 31.429688 L 18.96875 31.429688 Z M 18.96875 21.367188 " clip-rule="nonzero"/></clipPath><clipPath id="f9cde48b45"><path d="M 24 21.367188 C 21.222656 21.367188 18.96875 23.621094 18.96875 26.398438 C 18.96875 29.175781 21.222656 31.429688 24 31.429688 C 26.777344 31.429688 29.03125 29.175781 29.03125 26.398438 C 29.03125 23.621094 26.777344 21.367188 24 21.367188 " clip-rule="nonzero"/></clipPath></defs><g clip-path="url(#76093421cb)"><g clip-path="url(#d52cf5a9a8)"><path fill="#8c52ff" d="M 0.488281 0 L 47.511719 0 L 47.511719 47.019531 L 0.488281 47.019531 Z M 0.488281 0 " fill-opacity="1" fill-rule="nonzero"/></g></g><g fill="#000000" fill-opacity="1"><g transform="translate(5.646113, 38.627041)"><g><path d="M 36.140625 0 L 28.3125 0 L 25.46875 -8.6875 L 11.046875 -8.6875 L 8.21875 0 L 0.5625 0 L 13.578125 -37.65625 L 23.125 -37.65625 Z M 17.90625 -29.796875 L 13.0625 -14.9375 L 23.40625 -14.9375 L 18.546875 -29.796875 Z M 17.90625 -29.796875 "/></g></g></g><g clip-path="url(#88be37feb9)"><g clip-path="url(#3ae003e5f3)"><g clip-path="url(#86d29761ab)"><path fill="#8c52ff" d="M 22.691406 20.277344 L 35.273438 26.589844 L 28.964844 39.167969 L 16.382812 32.859375 Z M 22.691406 20.277344 " fill-opacity="1" fill-rule="nonzero"/></g></g></g><g clip-path="url(#eb24a3b918)"><g clip-path="url(#722b4c07a7)"><g clip-path="url(#0fc952db70)"><path fill="#8c52ff" d="M 24.265625 20.242188 L 29.683594 31.054688 L 18.871094 36.472656 L 13.453125 25.660156 Z M 24.265625 20.242188 " fill-opacity="1" fill-rule="nonzero"/></g></g></g><g clip-path="url(#61d1a4a671)"><g clip-path="url(#f9cde48b45)"><path fill="#8c52ff" d="M 18.96875 21.367188 L 29.03125 21.367188 L 29.03125 31.429688 L 18.96875 31.429688 Z M 18.96875 21.367188 " fill-opacity="1" fill-rule="nonzero"/></g></g></svg>